<svg width="230" height="35" viewBox="0 0 230 35" fill="none" xmlns="http://www.w3.org/2000/svg">
<path fill-rule="evenodd" clip-rule="evenodd" d="M229.5 0C225.783 3.53233 221.761 3.97537 218.129 4.41841L216.35 4.63394C214.4 4.82552 212.742 4.94526 210.878 6.09477C209.013 7.14848 206.856 9.54328 205.381 11.3035C199.592 12.2734 194.79 14.0455 190.671 16.1649C183.407 20.0564 178.41 25.1693 174.693 28.9771L171.061 33.0363L171.743 32.8567C178.41 26.9415 184.686 22.7027 190.671 20.1403C194.4 18.4639 198.02 17.482 201.554 17.1348H201.652L205.479 12.3572C206.454 11.4711 207.928 11.1238 210.086 10.9442L213.912 10.6808L217.142 10.5012L218.227 10.4054C220.774 10.0462 222.931 9.51933 225.978 5.62778L230 0.323299L229.5 0ZM202.541 14.9316C202.541 14.9316 201.457 16.3445 201.262 16.5241C197.837 16.9672 194.302 17.9371 190.671 19.4458C186.064 21.4694 181.359 24.3072 176.448 28.1868C179.884 24.6545 184.394 20.3199 190.671 16.9672C194.595 14.8478 199.299 13.0756 204.894 12.1057C204.491 12.453 202.541 14.9316 202.541 14.9316ZM225.393 5.30448C222.554 9.01642 220.579 9.54328 218.129 9.81868L217.142 9.9025L213.815 10.0821L209.988 10.3455C208.416 10.5251 207.246 10.7886 206.259 11.3154C207.55 9.81868 209.501 7.60349 211.17 6.53781C212.937 5.48409 214.997 5.3883 216.265 5.20869L217.057 5.12487H217.154L218.239 5.04106C221.286 4.68184 224.711 4.15498 228.05 1.85597C226.856 3.44851 225.393 5.30448 225.393 5.30448Z" fill="black"/>
<path fill-rule="evenodd" clip-rule="evenodd" d="M171.45 32.689C183.114 24.5587 189.293 21.3856 203.113 21.2059L200.176 25.0975C199.591 26.1512 198.701 26.1512 197.824 26.0674C187.915 25.9836 181.054 26.69 169.098 35L171.45 32.689Z" fill="url(#paint0_linear_2269_1002)"/>
<path fill-rule="evenodd" clip-rule="evenodd" d="M172.084 32.0185C172.084 32.0424 172.084 32.0544 172.072 32.0664C183.467 22.1998 193.144 17.7455 201.529 16.7875C202.309 15.9015 204.892 12.6206 205.672 11.5549C186.733 14.5604 178.031 26.4386 172.084 32.0185Z" fill="url(#paint1_linear_2269_1002)"/>
<path fill-rule="evenodd" clip-rule="evenodd" d="M172.036 32.0664C171.889 32.2101 171.499 32.6291 171.146 32.9524C171.036 33.0482 170.829 33.2877 170.817 33.2997C173.023 31.6473 177.495 28.4263 181.603 26.3069C185.685 24.1995 190.658 22.4632 197.726 21.5412C198.409 20.8348 200.529 18.1646 201.517 16.7516C188.476 18.5358 179.884 25.4447 172.036 32.0664Z" fill="url(#paint2_linear_2269_1002)"/>
<path fill-rule="evenodd" clip-rule="evenodd" d="M199.885 25.5286C199.982 25.0855 200.287 24.7263 198.909 23.948C197.142 22.9781 196.557 23.4092 196.947 22.4393C197.24 21.649 200.872 20.2361 203.614 21.1102C203.614 21.1102 201.164 23.6726 199.885 25.5286Z" fill="url(#paint3_linear_2269_1002)"/>
<path fill-rule="evenodd" clip-rule="evenodd" d="M210.183 10.4293C207.428 10.6928 205.771 11.3992 204.686 12.6445L201.006 17.4461C201.883 16.7396 204.284 16.3565 206.941 16.3565H207.331C207.428 16.3565 207.526 16.3565 207.623 16.3565C208.013 16.3565 208.415 16.2727 208.793 16.2727C212.62 16.1888 217.812 15.65 220.956 12.2135L225.514 6.23845L226.014 5.5679C222.016 10.4892 213.034 9.98631 210.183 10.4293Z" fill="url(#paint4_linear_2269_1002)"/>
<path fill-rule="evenodd" clip-rule="evenodd" d="M217.044 4.84947C215.874 5.02908 213.23 4.94526 211.06 6.2624C208.806 7.59151 206.076 10.8245 204.796 12.5009C205.978 11.2675 207.733 10.8604 210.085 10.585C212.45 10.3216 215.777 10.4054 218.226 10.0582C220.578 9.79473 222.736 9.35169 225.673 5.47211L229.792 0.167633C225.575 4.15497 220.968 4.32261 217.044 4.84947Z" fill="url(#paint5_linear_2269_1002)"/>
<path fill-rule="evenodd" clip-rule="evenodd" d="M212.34 15.7219C209.5 16.0811 206.258 16.1649 205.283 16.2487C203.711 16.2487 201.554 16.7756 200.969 17.482C199.104 19.6014 197.435 21.5412 196.947 22.4273C198.032 21.4574 201.664 21.5412 206.075 21.3736C210.487 21.194 214.899 19.338 218.421 15.5422L221.102 11.986C219.335 14.2012 216.166 15.195 212.34 15.7219Z" fill="url(#paint6_linear_2269_1002)"/>
<path fill-rule="evenodd" clip-rule="evenodd" d="M119.062 26.0435L124.84 15.3746H124.949L131.336 26.0435H137.906L129.423 12.2614H123.877L116.222 26.0435H119.062Z" fill="#10349E"/>
<path fill-rule="evenodd" clip-rule="evenodd" d="M28.2295 20.0205L37.2979 19.9247C37.2004 21.8525 36.0303 22.9182 35.4209 23.3732C33.9217 24.4509 31.7764 24.5467 30.7526 24.5467C29.2534 24.5467 27.9614 24.3551 26.6328 23.6367C25.7918 23.1817 24.8289 22.4153 24.3414 21.7687L23.9391 21.2179L20.9895 22.7506C21.8549 23.6606 23.1956 24.5587 24.6217 25.2172C26.8035 26.1991 28.8268 26.4386 31.2645 26.4386C33.8607 26.4386 37.9073 26.1033 40.8326 24.1156C42.8681 22.7266 43.8067 20.8348 43.8067 19.1584C43.8067 17.482 42.8681 15.5662 40.8326 14.2012C38.3096 12.4769 34.6286 11.8782 31.3377 11.8782C29.2046 11.8782 27.2423 12.0698 25.2555 12.7403C23.5979 13.2672 22.3059 13.9976 20.9773 15.0393L23.927 16.5481L24.6339 15.8536C25.2189 15.2549 26.2062 14.7041 27.1082 14.3688C28.3027 13.8898 29.5459 13.7342 30.8501 13.7342C33.4707 13.7342 34.9821 14.5005 35.8231 15.2549C36.3838 15.7338 37.1151 16.6319 37.2979 18.0328L28.2295 17.9011V20.0205Z" fill="#10349E"/>
<path fill-rule="evenodd" clip-rule="evenodd" d="M148.34 13.5546C149.815 13.5546 151.497 13.8539 152.789 15.3507C153.837 16.5481 154.008 17.937 154.008 19.1584C154.008 20.3797 153.837 21.7448 152.789 22.9661C151.497 24.4748 149.815 24.7622 148.34 24.7622C146.865 24.7622 145.183 24.4748 143.891 22.9661C142.855 21.7448 142.672 20.3797 142.672 19.1584C142.672 17.937 142.855 16.5481 143.891 15.3507C145.183 13.8539 146.865 13.5546 148.34 13.5546ZM148.34 26.4506C151.095 26.4506 154.922 25.8758 157.494 24.1276C159.529 22.7626 160.492 20.8228 160.492 19.1704C160.492 17.5179 159.529 15.5782 157.494 14.2131C154.922 12.4649 151.082 11.8902 148.34 11.8902C145.61 11.8902 141.746 12.4649 139.15 14.2131C137.114 15.5782 136.176 17.5179 136.176 19.1704C136.176 20.8228 137.114 22.7626 139.15 24.1276C141.746 25.8758 145.61 26.4506 148.34 26.4506Z" fill="#10349E"/>
<path fill-rule="evenodd" clip-rule="evenodd" d="M98.8283 15.7338C99.389 15.5662 100.047 15.4704 100.718 15.4704H101.412V22.6309H100.718C100.059 22.6309 99.4012 22.5351 98.8283 22.3674C98.3286 22.2237 97.8654 22.0322 97.4998 21.7448C96.8172 21.2419 96.2565 20.4037 96.2565 19.0387C96.2565 17.6976 96.8172 16.8594 97.4998 16.3565C97.8654 16.0811 98.3286 15.8775 98.8283 15.7338ZM109.469 24.391C112.748 24.1994 114.479 23.481 115.405 22.9542C117.136 21.9723 117.928 20.5713 117.928 19.0387C117.928 17.027 116.526 15.8176 115.405 15.1591C113.845 14.2251 111.663 13.8419 109.469 13.7222C108.884 13.6743 108.299 13.6743 107.714 13.6743H107.08V11.7824H101.205V13.6743H100.596C100.011 13.6743 99.4256 13.6743 98.8405 13.7222C96.6222 13.8419 94.4404 14.2251 92.9046 15.1591C91.7833 15.8296 90.3816 17.027 90.3816 19.0387C90.3816 20.5713 91.1739 21.9603 92.9046 22.9542C93.7944 23.481 95.5252 24.1994 98.8405 24.391C99.3768 24.415 99.9619 24.4389 100.596 24.4389H101.205V26.4506H107.08V24.4389H107.714C108.348 24.4389 108.945 24.415 109.469 24.391ZM109.469 15.7338C109.981 15.8775 110.432 16.0691 110.798 16.3565C111.48 16.8594 112.041 17.6976 112.041 19.0387C112.041 20.4037 111.48 21.2419 110.798 21.7448C110.432 22.0322 109.981 22.2237 109.469 22.3674C108.884 22.5351 108.25 22.6309 107.555 22.6309H106.897V15.4704H107.555C108.25 15.4704 108.884 15.5782 109.469 15.7338Z" fill="#10349E"/>
<path fill-rule="evenodd" clip-rule="evenodd" d="M76.9367 13.5546C78.3872 13.5546 80.0936 13.8539 81.3978 15.3507C82.446 16.5481 82.6167 17.937 82.6167 19.1584C82.6167 20.3797 82.4338 21.7448 81.3978 22.9661C80.0936 24.4748 78.3872 24.7622 76.9367 24.7622C75.4619 24.7622 73.7555 24.4748 72.4635 22.9661C71.4153 21.7448 71.2568 20.3797 71.2568 19.1584C71.2568 17.937 71.4153 16.5481 72.4635 15.3507C73.7677 13.8539 75.4741 13.5546 76.9367 13.5546ZM76.9367 26.4506C79.667 26.4506 83.5308 25.8758 86.1026 24.1276C88.1137 22.7626 89.0645 20.8228 89.0645 19.1704C89.0645 17.5179 88.1137 15.5782 86.1026 14.2131C83.5308 12.4649 79.667 11.8902 76.9367 11.8902C74.1943 11.8902 70.3183 12.4649 67.7465 14.2131C65.711 15.5782 64.7725 17.5179 64.7725 19.1704C64.7725 20.8228 65.711 22.7626 67.7465 24.1276C70.3305 25.8758 74.1943 26.4506 76.9367 26.4506Z" fill="#10349E"/>
<path fill-rule="evenodd" clip-rule="evenodd" d="M54.7527 20.9904H55.8497C58.6775 20.9904 60.6398 20.703 62.0415 19.9367C63.7967 18.9548 64.1989 17.6137 64.1989 16.56C64.1989 15.5303 63.7967 14.1892 62.0415 13.2552C60.6398 12.5128 58.7628 12.2733 55.6059 12.2733H54.7527H45.5381V26.0554H51.413V21.0024H54.7527V20.9904ZM54.7527 14.3688C55.4597 14.3927 56.386 14.5125 57.0442 14.8957C57.934 15.4225 58.0802 16.1409 58.0802 16.572C58.0802 17.0031 57.9583 17.7694 56.9832 18.3202C56.3251 18.7273 55.5084 18.8471 54.7405 18.895H54.1311H51.413V14.3448H54.1311C54.3261 14.3448 54.5211 14.3448 54.7527 14.3688Z" fill="#10349E"/>
<path fill-rule="evenodd" clip-rule="evenodd" d="M9.23901 15.4944L12.1643 20.1882H6.31373L9.08055 15.3986H9.16587L9.23901 15.4944ZM13.371 22.0681L15.894 26.0435H22.4637L13.5416 12.2614H8.09327L0 26.0435H2.92528L5.24112 22.0681H13.371Z" fill="#10349E"/>
<path fill-rule="evenodd" clip-rule="evenodd" d="M159.566 14.3449H165.88V26.0435H171.767V14.3449H178.093V12.2614H159.566V14.3449Z" fill="#10349E"/>
<defs>
<linearGradient id="paint0_linear_2269_1002" x1="176.876" y1="19.1365" x2="191.304" y2="33.6344" gradientUnits="userSpaceOnUse">
<stop stop-color="#C00D0D"/>
<stop offset="0.3" stop-color="#E30613"/>
<stop offset="0.3338" stop-color="#E51925"/>
<stop offset="0.4021" stop-color="#EA4A53"/>
<stop offset="0.498" stop-color="#F3979D"/>
<stop offset="0.5292" stop-color="#F6B2B6"/>
<stop offset="0.5335" stop-color="#F5ACB0"/>
<stop offset="0.5726" stop-color="#F07A81"/>
<stop offset="0.6113" stop-color="#EB5059"/>
<stop offset="0.6487" stop-color="#E8303B"/>
<stop offset="0.6846" stop-color="#E51925"/>
<stop offset="0.7182" stop-color="#E40B18"/>
<stop offset="0.7475" stop-color="#E30613"/>
<stop offset="1" stop-color="#C00D0D"/>
</linearGradient>
<linearGradient id="paint1_linear_2269_1002" x1="170.601" y1="8.78124" x2="206.852" y2="35.5888" gradientUnits="userSpaceOnUse">
<stop stop-color="white"/>
<stop offset="0.34" stop-color="white"/>
<stop offset="0.54" stop-color="white"/>
<stop offset="0.91" stop-color="#D3DAF0"/>
<stop offset="1" stop-color="#D3DAF0"/>
</linearGradient>
<linearGradient id="paint2_linear_2269_1002" x1="177.153" y1="16.2906" x2="197.01" y2="36.2422" gradientUnits="userSpaceOnUse">
<stop stop-color="#004A93"/>
<stop offset="0.1296" stop-color="#004A93"/>
<stop offset="0.1962" stop-color="#215EA2"/>
<stop offset="0.3203" stop-color="#5980BB"/>
<stop offset="0.4126" stop-color="#7C95CA"/>
<stop offset="0.4622" stop-color="#899DD0"/>
<stop offset="0.4846" stop-color="#7490C7"/>
<stop offset="0.5567" stop-color="#366BAB"/>
<stop offset="0.6096" stop-color="#0F539A"/>
<stop offset="0.6371" stop-color="#004A93"/>
<stop offset="0.9166" stop-color="#004A93"/>
</linearGradient>
<linearGradient id="paint3_linear_2269_1002" x1="196.629" y1="20.055" x2="204.335" y2="25.1487" gradientUnits="userSpaceOnUse">
<stop stop-color="#C00D0D"/>
<stop offset="0.5" stop-color="#E30613"/>
<stop offset="1" stop-color="#F6B2B6"/>
</linearGradient>
<linearGradient id="paint4_linear_2269_1002" x1="203.082" y1="2.95901" x2="224.247" y2="20.8689" gradientUnits="userSpaceOnUse">
<stop stop-color="#D3DDF2"/>
<stop offset="0.073" stop-color="#D3DDF2"/>
<stop offset="0.1161" stop-color="#BBCCE7"/>
<stop offset="0.2073" stop-color="#7DA1CB"/>
<stop offset="0.3382" stop-color="#1A5C9F"/>
<stop offset="0.3708" stop-color="#004A93"/>
<stop offset="0.4274" stop-color="#085097"/>
<stop offset="0.5159" stop-color="#1E5FA1"/>
<stop offset="0.6253" stop-color="#4379B1"/>
<stop offset="0.7514" stop-color="#759CC8"/>
<stop offset="0.8897" stop-color="#B5C8E5"/>
<stop offset="0.9494" stop-color="#D3DDF2"/>
<stop offset="1" stop-color="#D3DDF2"/>
</linearGradient>
<linearGradient id="paint5_linear_2269_1002" x1="207.408" y1="-1.73384" x2="227.508" y2="15.2744" gradientUnits="userSpaceOnUse">
<stop stop-color="white"/>
<stop offset="0.1742" stop-color="white"/>
<stop offset="0.2545" stop-color="#F9FAFD"/>
<stop offset="0.3627" stop-color="#E8EBF8"/>
<stop offset="0.3865" stop-color="#E3E7F6"/>
<stop offset="0.4526" stop-color="#EDEFF9"/>
<stop offset="0.5837" stop-color="#FAFBFE"/>
<stop offset="0.7" stop-color="white"/>
<stop offset="1" stop-color="white"/>
</linearGradient>
<linearGradient id="paint6_linear_2269_1002" x1="199.645" y1="9.55931" x2="217.673" y2="24.8144" gradientUnits="userSpaceOnUse">
<stop stop-color="#F6B2B6"/>
<stop offset="0.0562" stop-color="#F6B2B6"/>
<stop offset="0.1077" stop-color="#F07D83"/>
<stop offset="0.1633" stop-color="#EA4A53"/>
<stop offset="0.212" stop-color="#E62530"/>
<stop offset="0.2512" stop-color="#E40E1B"/>
<stop offset="0.2761" stop-color="#E30613"/>
<stop offset="0.4104" stop-color="#CD0A0F"/>
<stop offset="0.5169" stop-color="#C00D0D"/>
<stop offset="0.5943" stop-color="#CD0A0F"/>
<stop offset="0.6919" stop-color="#E30613"/>
<stop offset="0.8914" stop-color="#F4A8A7"/>
<stop offset="1" stop-color="#F6B2B6"/>
</linearGradient>
</defs>
</svg>
